<?xml version="1.0" encoding="utf-8"?>
<!-- Generator: Adobe Illustrator 19.2.1, SVG Export Plug-In . SVG Version: 6.00 Build 0)  -->
<svg version="1.1" xmlns="http://www.w3.org/2000/svg" xmlns:xlink="http://www.w3.org/1999/xlink" x="0px" y="0px"
	 viewBox="0 0 512 512" style="enable-background:new 0 0 512 512;" xml:space="preserve">
<style type="text/css">
	.st0{fill:#298063;}
	.st1{fill:#87B7DD;}
	.st2{fill:#1F3049;}
	.st3{fill:#B9BDC2;}
	.st4{fill:#CA6A46;}
	.st5{fill:#5082A9;}
	.st6{fill:#D5872A;}
	.st7{fill:#57646E;}
	.st8{fill:#75A897;}
	.st9{fill:#C93A3A;}
	.st10{fill:#E6CA56;}
	.st11{fill:#DA8B80;}
	.st12{fill:#E4C856;}
	.st13{fill:#C9402E;}
	.st14{fill:#A32929;}
	.st15{clip-path:url(#SVGID_2_);}
	.st16{fill:#D17F73;}
	.st17{fill:#E6A585;}
	.st18{fill:#733D28;}
	.st19{fill:#FFFFFF;}
	.st20{fill:#4E3333;}
	.st21{clip-path:url(#SVGID_4_);}
	.st22{fill:#FFB6AB;}
	.st23{clip-path:url(#SVGID_6_);}
	.st24{clip-path:url(#SVGID_8_);}
	.st25{clip-path:url(#SVGID_10_);}
	.st26{fill:#F09162;}
	.st27{clip-path:url(#SVGID_12_);}
	.st28{clip-path:url(#SVGID_14_);}
	.st29{clip-path:url(#SVGID_16_);}
	.st30{clip-path:url(#SVGID_18_);}
	.st31{clip-path:url(#SVGID_20_);}
	.st32{clip-path:url(#SVGID_22_);}
	.st33{fill:#572020;}
	.st34{clip-path:url(#SVGID_24_);}
	.st35{clip-path:url(#SVGID_26_);}
	.st36{clip-path:url(#SVGID_28_);}
	.st37{fill:#A34B2A;}
	.st38{clip-path:url(#SVGID_30_);}
	.st39{clip-path:url(#SVGID_32_);}
	.st40{clip-path:url(#SVGID_34_);}
	.st41{clip-path:url(#SVGID_36_);}
	.st42{fill:#E09C6F;}
	.st43{clip-path:url(#SVGID_38_);}
	.st44{clip-path:url(#SVGID_40_);}
	.st45{clip-path:url(#SVGID_42_);}
	.st46{clip-path:url(#SVGID_44_);}
	.st47{clip-path:url(#SVGID_46_);}
	.st48{clip-path:url(#SVGID_48_);}
	.st49{clip-path:url(#SVGID_50_);}
	.st50{clip-path:url(#SVGID_52_);}
	.st51{clip-path:url(#SVGID_54_);}
	.st52{clip-path:url(#SVGID_56_);}
	.st53{clip-path:url(#SVGID_58_);}
	.st54{clip-path:url(#SVGID_60_);}
	.st55{clip-path:url(#SVGID_62_);}
	.st56{clip-path:url(#SVGID_64_);fill:#75A897;}
	.st57{clip-path:url(#SVGID_64_);fill:#A34B2A;}
	.st58{clip-path:url(#SVGID_64_);}
	.st59{clip-path:url(#SVGID_64_);fill:#1F3049;}
	.st60{clip-path:url(#SVGID_66_);}
	.st61{clip-path:url(#SVGID_68_);}
	.st62{clip-path:url(#SVGID_70_);}
	.st63{clip-path:url(#SVGID_72_);}
	.st64{clip-path:url(#SVGID_74_);}
	.st65{clip-path:url(#SVGID_76_);}
	.st66{clip-path:url(#SVGID_78_);}
	.st67{clip-path:url(#SVGID_80_);}
	.st68{clip-path:url(#SVGID_82_);}
	.st69{clip-path:url(#SVGID_84_);}
	.st70{clip-path:url(#SVGID_86_);}
	.st71{clip-path:url(#SVGID_88_);}
	.st72{clip-path:url(#SVGID_90_);}
	.st73{clip-path:url(#SVGID_92_);}
	.st74{clip-path:url(#SVGID_94_);}
	.st75{clip-path:url(#SVGID_96_);}
	.st76{clip-path:url(#SVGID_98_);}
	.st77{clip-path:url(#SVGID_98_);fill:none;}
	.st78{clip-path:url(#SVGID_100_);}
</style>
<g id="ICON">
	<g>
		<ellipse class="st10" cx="256.4" cy="255.5" rx="228.4" ry="228.4"/>
	</g>
</g>
<g id="Layer_6">
	<g>
		<defs>
			
				<ellipse id="SVGID_63_" transform="matrix(1 -6.824479e-03 6.824479e-03 1 -1.7359 1.7444)" cx="254.7" cy="255.2" rx="228.4" ry="228.4"/>
		</defs>
		<clipPath id="SVGID_2_">
			<use xlink:href="#SVGID_63_"  style="overflow:visible;"/>
		</clipPath>
		<path style="clip-path:url(#SVGID_2_);fill:#75A897;" d="M488.1,553.8l-0.1-1.1c-0.4-64.5-25-126.7-54.5-138.4l-125.7-49.7
			c-29.5-11.7-77.7-11.4-107.1,0.6L74,416.9c-29.4,12-53,74.6-52.6,139l-0.1,1.1L488.1,553.8z"/>
		<path style="clip-path:url(#SVGID_2_);fill:#A34B2A;" d="M308.4,364.4c0,28-22.7,50.6-50.6,50.6h-6.1c-28,0-50.6-22.7-50.6-50.6
			V234c0-28,22.7-50.6,50.6-50.6h6.1c28,0,50.6,22.7,50.6,50.6V364.4z"/>
		<g class="st15">
			<path class="st37" d="M184,228.4c7.1,15.6,3.4,30.8-8.2,34c-11.6,3.2-26.7-6.9-33.8-22.5c-7.1-15.6-3.4-30.8,8.2-34
				C161.9,202.8,177,212.8,184,228.4z"/>
			<path class="st37" d="M325.5,227.4c-6.8,15.7-3,30.9,8.7,33.9c11.6,3,26.6-7.2,33.5-22.9c6.8-15.7,3-30.9-8.7-33.9
				C347.3,201.5,332.3,211.7,325.5,227.4z"/>
		</g>
		<g class="st15">
			<path class="st4" d="M308.4,109.1c-0.7-0.7-1.2-1.5-1.5-2.2l-107.4,0.7c-14.3,18.5-27.9,37.5-40.4,57.3c0,0.1-0.1,0.1-0.1,0.2
				l17,134.3c0.1,19.1,16.8,34.4,37.2,34.3l87.4-0.6c20.4-0.1,36.9-15.7,36.8-34.8l13.1-136C337.7,143.6,324.5,125.2,308.4,109.1z"
				/>
		</g>
		<g class="st15">
			
				<ellipse transform="matrix(1 -6.804624e-03 6.804624e-03 1 -1.5205 1.5152)" class="st2" cx="221.9" cy="224.2" rx="9.9" ry="9.9"/>
			
				<ellipse transform="matrix(1 -6.850399e-03 6.850399e-03 1 -1.5261 1.9753)" class="st2" cx="287.6" cy="223.8" rx="9.9" ry="9.9"/>
		</g>
		<g class="st15">
			<path class="st2" d="M218.5,261.7c0.8,23,16.9,41.3,36.6,41.2c19.6-0.1,35.5-18.7,36-41.7c-10.1,5.5-22.6,8.7-36.2,8.8
				C241.2,270.1,228.6,267,218.5,261.7z"/>
			<path class="st19" d="M228.9,279.9c0.1,0,0.1,0,0.2,0h51.6c0.5-0.9,0.8-1.9,0.8-3l-0.1-11.4c-8,2.8-17,4.5-26.6,4.5
				c-9.5,0.1-18.6-1.4-26.6-4.2l0.1,11.4C228.3,278.1,228.5,279.1,228.9,279.9z"/>
		</g>
		<g class="st15">
			<g>
				<polygon class="st2" points="170.7,221.4 159.2,221.5 158.7,145.8 182.4,133.4 				"/>
				<polygon class="st2" points="350.8,221.2 339.3,221.3 326.4,133.4 350.8,145.5 				"/>
			</g>
		</g>
		<g class="st15">
			<path class="st33" d="M245.2,202c0,6.6-5.4,12-12,12h-24c-6.6,0-12-5.4-12-12l0,0c0-6.6,5.4-12,12-12h24
				C239.9,190,245.2,195.4,245.2,202L245.2,202z"/>
			<path class="st33" d="M312.2,202c0,6.6-5.4,12-12,12h-24c-6.6,0-12-5.4-12-12l0,0c0-6.6,5.4-12,12-12h24
				C306.9,190,312.2,195.4,312.2,202L312.2,202z"/>
		</g>
		<path style="clip-path:url(#SVGID_2_);fill:#1F3049;" d="M348.7,153v-10c0-24.3-19.7-44-44-44h-100c-24.3,0-44,19.7-44,44v10
			H348.7z"/>
		<g class="st15">
			<g>
				<circle class="st2" cx="179.2" cy="112.5" r="25.5"/>
				<circle class="st2" cx="213.2" cy="102.7" r="25.5"/>
			</g>
			<g>
				<circle class="st2" cx="330.2" cy="112.5" r="25.5"/>
				<circle class="st2" cx="296.2" cy="102.7" r="25.5"/>
			</g>
		</g>
		<circle style="clip-path:url(#SVGID_2_);fill:#1F3049;" cx="254.7" cy="94.5" r="25.5"/>
	</g>
</g>
</svg>
