<?xml version="1.0" encoding="utf-8"?>
<!-- Generator: Adobe Illustrator 19.2.1, SVG Export Plug-In . SVG Version: 6.00 Build 0)  -->
<svg version="1.1" xmlns="http://www.w3.org/2000/svg" xmlns:xlink="http://www.w3.org/1999/xlink" x="0px" y="0px"
	 viewBox="0 0 512 512" style="enable-background:new 0 0 512 512;" xml:space="preserve">
<style type="text/css">
	.st0{fill:#298063;}
	.st1{fill:#87B7DD;}
	.st2{fill:#1F3049;}
	.st3{fill:#B9BDC2;}
	.st4{fill:#CA6A46;}
	.st5{fill:#5082A9;}
	.st6{fill:#D5872A;}
	.st7{fill:#57646E;}
	.st8{fill:#75A897;}
	.st9{fill:#C93A3A;}
	.st10{fill:#E6CA56;}
	.st11{fill:#DA8B80;}
	.st12{fill:#E4C856;}
	.st13{fill:#C9402E;}
	.st14{fill:#A32929;}
	.st15{clip-path:url(#SVGID_2_);}
	.st16{fill:#D17F73;}
	.st17{fill:#E6A585;}
	.st18{fill:#733D28;}
	.st19{fill:#FFFFFF;}
	.st20{fill:#4E3333;}
	.st21{clip-path:url(#SVGID_4_);}
	.st22{fill:#FFB6AB;}
	.st23{clip-path:url(#SVGID_6_);}
	.st24{clip-path:url(#SVGID_8_);}
	.st25{clip-path:url(#SVGID_10_);}
	.st26{fill:#F09162;}
	.st27{clip-path:url(#SVGID_12_);}
	.st28{clip-path:url(#SVGID_14_);}
	.st29{clip-path:url(#SVGID_16_);}
	.st30{clip-path:url(#SVGID_18_);}
	.st31{clip-path:url(#SVGID_20_);}
	.st32{clip-path:url(#SVGID_22_);}
	.st33{fill:#572020;}
	.st34{clip-path:url(#SVGID_24_);}
	.st35{clip-path:url(#SVGID_26_);}
	.st36{clip-path:url(#SVGID_28_);}
	.st37{fill:#A34B2A;}
	.st38{clip-path:url(#SVGID_30_);}
	.st39{clip-path:url(#SVGID_32_);}
	.st40{clip-path:url(#SVGID_34_);}
	.st41{clip-path:url(#SVGID_36_);}
	.st42{fill:#E09C6F;}
	.st43{clip-path:url(#SVGID_38_);}
	.st44{clip-path:url(#SVGID_40_);}
	.st45{clip-path:url(#SVGID_42_);}
	.st46{clip-path:url(#SVGID_44_);}
	.st47{clip-path:url(#SVGID_46_);}
	.st48{clip-path:url(#SVGID_48_);}
	.st49{clip-path:url(#SVGID_50_);}
	.st50{clip-path:url(#SVGID_52_);}
	.st51{clip-path:url(#SVGID_54_);}
	.st52{clip-path:url(#SVGID_56_);}
	.st53{clip-path:url(#SVGID_58_);}
	.st54{clip-path:url(#SVGID_60_);}
	.st55{clip-path:url(#SVGID_62_);}
	.st56{clip-path:url(#SVGID_64_);fill:#75A897;}
	.st57{clip-path:url(#SVGID_64_);fill:#A34B2A;}
	.st58{clip-path:url(#SVGID_64_);}
	.st59{clip-path:url(#SVGID_64_);fill:#1F3049;}
	.st60{clip-path:url(#SVGID_66_);}
	.st61{clip-path:url(#SVGID_68_);}
	.st62{clip-path:url(#SVGID_70_);}
	.st63{clip-path:url(#SVGID_72_);}
	.st64{clip-path:url(#SVGID_74_);}
	.st65{clip-path:url(#SVGID_76_);}
	.st66{clip-path:url(#SVGID_78_);}
	.st67{clip-path:url(#SVGID_80_);}
	.st68{clip-path:url(#SVGID_82_);}
	.st69{clip-path:url(#SVGID_84_);}
	.st70{clip-path:url(#SVGID_86_);}
	.st71{clip-path:url(#SVGID_88_);}
	.st72{clip-path:url(#SVGID_90_);}
	.st73{clip-path:url(#SVGID_92_);}
	.st74{clip-path:url(#SVGID_94_);}
	.st75{clip-path:url(#SVGID_96_);}
	.st76{clip-path:url(#SVGID_98_);}
	.st77{clip-path:url(#SVGID_98_);fill:none;}
	.st78{clip-path:url(#SVGID_100_);}
</style>
<g id="ICON">
	<g>
		<ellipse class="st2" cx="256.4" cy="254.8" rx="228.4" ry="228.4"/>
	</g>
</g>
<g id="Layer_6">
	<g>
		<defs>
			<ellipse id="SVGID_33_" cx="256.6" cy="253.8" rx="228.4" ry="228.4"/>
		</defs>
		<clipPath id="SVGID_2_">
			<use xlink:href="#SVGID_33_"  style="overflow:visible;"/>
		</clipPath>
		<g class="st15">
			<rect x="121.1" y="178" class="st9" width="271" height="156"/>
			<ellipse class="st9" cx="256.6" cy="187.5" rx="136" ry="127.5"/>
			<path class="st10" d="M490,544l-0.1-1.1c0-64.5-24.1-126.9-53.5-138.8l-125.3-50.6c-29.4-11.9-77.6-11.9-107.1-0.1L76.9,404.3
				c-29.5,11.8-53.6,74.2-53.6,138.6l-0.1,1.1H490z"/>
			<path class="st11" d="M305.8,355.7c0,25.6-20.7,46.3-46.3,46.3h-5.6c-25.6,0-46.3-20.7-46.3-46.3V236.3
				c0-25.6,20.7-46.3,46.3-46.3h5.6c25.6,0,46.3,20.7,46.3,46.3V355.7z"/>
			<g>
				<path class="st22" d="M351.4,237.7c0,54.1-42.4,97.9-94.8,97.9l0,0c-52.4,0-94.8-43.8-94.8-97.9v-56.4c0-54,42.4-97.8,94.8-97.8
					l0,0c52.4,0,94.8,43.8,94.8,97.8V237.7z"/>
			</g>
			<g>
				<circle class="st2" cx="223.8" cy="227.6" r="9.9"/>
				<circle class="st2" cx="289.5" cy="227.6" r="9.9"/>
			</g>
			<g>
				<ellipse class="st4" cx="256.6" cy="292" rx="28" ry="24"/>
				<g>
					<path class="st2" d="M222.3,266.6c0.6,21.4,15.7,38.4,34.3,38.4c18.6,0,33.7-17.1,34.3-38.4c-9.5,5-21.4,8-34.3,8
						C243.8,274.5,231.9,271.6,222.3,266.6z"/>
					<path class="st19" d="M237.4,286.8h38.4c3.3,0,5.9-2.6,5.9-5.8v-10.6c-7.6,2.6-16.1,4-25.1,4c-9,0-17.5-1.5-25.1-4V281
						C231.5,284.2,234.1,286.8,237.4,286.8z"/>
				</g>
			</g>
			<path class="st19" d="M354.1,188c1-5.7,1.5-11.6,1.5-17.5c0-55.5-44.3-100.5-99-100.5c-54.7,0-99,45-99,100.5
				c0,6,0.5,11.8,1.5,17.5H354.1z"/>
			<path class="st9" d="M354.1,211c1-5.7,1.5-11.6,1.5-17.5c0-55.5-44.3-100.5-99-100.5c-54.7,0-99,45-99,100.5
				c0,6,0.5,11.8,1.5,17.5H354.1z"/>
		</g>
	</g>
</g>
</svg>
