<?xml version="1.0" encoding="utf-8"?>
<!-- Generator: Adobe Illustrator 19.2.1, SVG Export Plug-In . SVG Version: 6.00 Build 0)  -->
<svg version="1.1" xmlns="http://www.w3.org/2000/svg" xmlns:xlink="http://www.w3.org/1999/xlink" x="0px" y="0px"
	 viewBox="0 0 512 512" style="enable-background:new 0 0 512 512;" xml:space="preserve">
<style type="text/css">
	.st0{fill:#298063;}
	.st1{fill:#87B7DD;}
	.st2{fill:#1F3049;}
	.st3{fill:#B9BDC2;}
	.st4{fill:#CA6A46;}
	.st5{fill:#5082A9;}
	.st6{fill:#D5872A;}
	.st7{fill:#57646E;}
	.st8{fill:#75A897;}
	.st9{fill:#C93A3A;}
	.st10{fill:#E6CA56;}
	.st11{fill:#DA8B80;}
	.st12{fill:#E4C856;}
	.st13{fill:#C9402E;}
	.st14{fill:#A32929;}
	.st15{clip-path:url(#SVGID_2_);}
	.st16{fill:#D17F73;}
	.st17{fill:#E6A585;}
	.st18{fill:#733D28;}
	.st19{fill:#FFFFFF;}
	.st20{fill:#4E3333;}
	.st21{clip-path:url(#SVGID_4_);}
	.st22{fill:#FFB6AB;}
	.st23{clip-path:url(#SVGID_6_);}
	.st24{clip-path:url(#SVGID_8_);}
	.st25{clip-path:url(#SVGID_10_);}
	.st26{fill:#F09162;}
	.st27{clip-path:url(#SVGID_12_);}
	.st28{clip-path:url(#SVGID_14_);}
	.st29{clip-path:url(#SVGID_16_);}
	.st30{clip-path:url(#SVGID_18_);}
	.st31{clip-path:url(#SVGID_20_);}
	.st32{clip-path:url(#SVGID_22_);}
	.st33{fill:#572020;}
	.st34{clip-path:url(#SVGID_24_);}
	.st35{clip-path:url(#SVGID_26_);}
	.st36{clip-path:url(#SVGID_28_);}
	.st37{fill:#A34B2A;}
	.st38{clip-path:url(#SVGID_30_);}
	.st39{clip-path:url(#SVGID_32_);}
	.st40{clip-path:url(#SVGID_34_);}
	.st41{clip-path:url(#SVGID_36_);}
	.st42{fill:#E09C6F;}
	.st43{clip-path:url(#SVGID_38_);}
	.st44{clip-path:url(#SVGID_40_);}
	.st45{clip-path:url(#SVGID_42_);}
	.st46{clip-path:url(#SVGID_44_);}
	.st47{clip-path:url(#SVGID_46_);}
	.st48{clip-path:url(#SVGID_48_);}
	.st49{clip-path:url(#SVGID_50_);}
	.st50{clip-path:url(#SVGID_52_);}
	.st51{clip-path:url(#SVGID_54_);}
	.st52{clip-path:url(#SVGID_56_);}
	.st53{clip-path:url(#SVGID_58_);}
	.st54{clip-path:url(#SVGID_60_);}
	.st55{clip-path:url(#SVGID_62_);}
	.st56{clip-path:url(#SVGID_64_);fill:#75A897;}
	.st57{clip-path:url(#SVGID_64_);fill:#A34B2A;}
	.st58{clip-path:url(#SVGID_64_);}
	.st59{clip-path:url(#SVGID_64_);fill:#1F3049;}
	.st60{clip-path:url(#SVGID_66_);}
	.st61{clip-path:url(#SVGID_68_);}
	.st62{clip-path:url(#SVGID_70_);}
	.st63{clip-path:url(#SVGID_72_);}
	.st64{clip-path:url(#SVGID_74_);}
	.st65{clip-path:url(#SVGID_76_);}
	.st66{clip-path:url(#SVGID_78_);}
	.st67{clip-path:url(#SVGID_80_);}
	.st68{clip-path:url(#SVGID_82_);}
	.st69{clip-path:url(#SVGID_84_);}
	.st70{clip-path:url(#SVGID_86_);}
	.st71{clip-path:url(#SVGID_88_);}
	.st72{clip-path:url(#SVGID_90_);}
	.st73{clip-path:url(#SVGID_92_);}
	.st74{clip-path:url(#SVGID_94_);}
	.st75{clip-path:url(#SVGID_96_);}
	.st76{clip-path:url(#SVGID_98_);}
	.st77{clip-path:url(#SVGID_98_);fill:none;}
	.st78{clip-path:url(#SVGID_100_);}
</style>
<g id="ICON">
	<g>
		<ellipse class="st10" cx="256.4" cy="254.9" rx="228.4" ry="228.4"/>
	</g>
</g>
<g id="Layer_6">
	<g>
		<defs>
			<ellipse id="SVGID_45_" cx="255.6" cy="253.4" rx="228.4" ry="228.4"/>
		</defs>
		<clipPath id="SVGID_2_">
			<use xlink:href="#SVGID_45_"  style="overflow:visible;"/>
		</clipPath>
		<g class="st15">
			<g>
				
					<ellipse transform="matrix(0.9453 -0.3262 0.3262 0.9453 -67.0947 66.1942)" class="st22" cx="163.9" cy="233.2" rx="22.2" ry="38.6"/>
				
					<ellipse transform="matrix(0.3262 -0.9453 0.9453 0.3262 13.6419 485.5144)" class="st22" cx="347.4" cy="233.2" rx="38.6" ry="22.2"/>
			</g>
			<path class="st8" d="M461,535.4l-0.1-1c0-58-21.2-114.2-47.1-124.9L303.5,364c-25.9-10.7-68.3-10.7-94.2-0.1L97.4,409.7
				c-25.9,10.6-47.1,66.7-47.1,124.7l-0.1,1H461z"/>
			<path class="st11" d="M304.8,378c0,25.6-20.7,46.3-46.3,46.3h-5.6c-25.6,0-46.3-20.7-46.3-46.3V258.7c0-25.6,20.7-46.3,46.3-46.3
				h5.6c25.6,0,46.3,20.7,46.3,46.3V378z"/>
			<path class="st22" d="M351.6,162.3c0-39.7-43-72-96-72s-96,32.2-96,72c0,3.7,0.4,7.3,1.1,10.9l15.2,132.4
				c0,19.8,16.6,35.9,37,35.9h87.4c20.4,0,37-16.1,37-35.9l13.1-132.1C351.2,169.9,351.6,166.1,351.6,162.3z"/>
			<g>
				<circle class="st2" cx="222.8" cy="231.3" r="9.9"/>
				<circle class="st2" cx="288.5" cy="231.3" r="9.9"/>
			</g>
			<g>
				<g>
					<path class="st2" d="M221.3,267.9c0.6,21.4,15.7,38.4,34.3,38.4c18.6,0,33.7-17.1,34.3-38.4c-9.5,5-21.4,8-34.3,8
						C242.8,275.9,230.9,272.9,221.3,267.9z"/>
				</g>
			</g>
			<path class="st9" d="M168.9,216.4c-1.9-7.5-2.9-15.4-2.9-23.5c0-51.6,40.1-93.5,89.6-93.5c49.5,0,89.6,41.9,89.6,93.5
				c0,8.1-1,16-2.9,23.5h14.8c1.7-8.4,2.6-17.1,2.6-26c0-64.6-46.6-117-104.1-117c-57.5,0-104.1,52.4-104.1,117
				c0,8.9,0.9,17.6,2.6,26H168.9z"/>
			<path class="st9" d="M225,84.4c-0.5,1.9-0.8,3.9-0.8,6v52c0,12.2,9.8,22,22,22h19c12.2,0,22-9.8,22-22v-52c0-2.1-0.3-4.1-0.8-6
				H225z"/>
			<g>
				<g>
					<path class="st4" d="M206.5,208.8c6.6-6,15.5-7.9,24-5.5c7.5,2.1,10.6-9.5,3.2-11.6c-12.7-3.6-26-0.3-35.7,8.6
						C192.3,205.6,200.8,214,206.5,208.8L206.5,208.8z"/>
				</g>
				<g>
					<path class="st4" d="M313.2,200.4c-9.7-8.8-23-12.1-35.7-8.6c-7.4,2.1-4.3,13.7,3.2,11.6c8.5-2.4,17.5-0.5,24,5.5
						C310.5,214,319,205.6,313.2,200.4L313.2,200.4z"/>
				</g>
			</g>
		</g>
	</g>
</g>
</svg>
