<?xml version="1.0" encoding="utf-8"?>
<!-- Generator: Adobe Illustrator 19.2.1, SVG Export Plug-In . SVG Version: 6.00 Build 0)  -->
<svg version="1.1" xmlns="http://www.w3.org/2000/svg" xmlns:xlink="http://www.w3.org/1999/xlink" x="0px" y="0px"
	 viewBox="0 0 512 512" style="enable-background:new 0 0 512 512;" xml:space="preserve">
<style type="text/css">
	.st0{fill:#298063;}
	.st1{fill:#87B7DD;}
	.st2{fill:#1F3049;}
	.st3{fill:#B9BDC2;}
	.st4{fill:#CA6A46;}
	.st5{fill:#5082A9;}
	.st6{fill:#D5872A;}
	.st7{fill:#57646E;}
	.st8{fill:#75A897;}
	.st9{fill:#C93A3A;}
	.st10{fill:#E6CA56;}
	.st11{fill:#DA8B80;}
	.st12{fill:#E4C856;}
	.st13{fill:#C9402E;}
	.st14{fill:#A32929;}
	.st15{clip-path:url(#SVGID_2_);}
	.st16{fill:#D17F73;}
	.st17{fill:#E6A585;}
	.st18{fill:#733D28;}
	.st19{fill:#FFFFFF;}
	.st20{fill:#4E3333;}
	.st21{clip-path:url(#SVGID_4_);}
	.st22{fill:#FFB6AB;}
	.st23{clip-path:url(#SVGID_6_);}
	.st24{clip-path:url(#SVGID_8_);}
	.st25{clip-path:url(#SVGID_10_);}
	.st26{fill:#F09162;}
	.st27{clip-path:url(#SVGID_12_);}
	.st28{clip-path:url(#SVGID_14_);}
	.st29{clip-path:url(#SVGID_16_);}
	.st30{clip-path:url(#SVGID_18_);}
	.st31{clip-path:url(#SVGID_20_);}
	.st32{clip-path:url(#SVGID_22_);}
	.st33{fill:#572020;}
	.st34{clip-path:url(#SVGID_24_);}
	.st35{clip-path:url(#SVGID_26_);}
	.st36{clip-path:url(#SVGID_28_);}
	.st37{fill:#A34B2A;}
	.st38{clip-path:url(#SVGID_30_);}
	.st39{clip-path:url(#SVGID_32_);}
	.st40{clip-path:url(#SVGID_34_);}
	.st41{clip-path:url(#SVGID_36_);}
	.st42{fill:#E09C6F;}
	.st43{clip-path:url(#SVGID_38_);}
	.st44{clip-path:url(#SVGID_40_);}
	.st45{clip-path:url(#SVGID_42_);}
	.st46{clip-path:url(#SVGID_44_);}
	.st47{clip-path:url(#SVGID_46_);}
	.st48{clip-path:url(#SVGID_48_);}
	.st49{clip-path:url(#SVGID_50_);}
	.st50{clip-path:url(#SVGID_52_);}
	.st51{clip-path:url(#SVGID_54_);}
	.st52{clip-path:url(#SVGID_56_);}
	.st53{clip-path:url(#SVGID_58_);}
	.st54{clip-path:url(#SVGID_60_);}
	.st55{clip-path:url(#SVGID_62_);}
	.st56{clip-path:url(#SVGID_64_);fill:#75A897;}
	.st57{clip-path:url(#SVGID_64_);fill:#A34B2A;}
	.st58{clip-path:url(#SVGID_64_);}
	.st59{clip-path:url(#SVGID_64_);fill:#1F3049;}
	.st60{clip-path:url(#SVGID_66_);}
	.st61{clip-path:url(#SVGID_68_);}
	.st62{clip-path:url(#SVGID_70_);}
	.st63{clip-path:url(#SVGID_72_);}
	.st64{clip-path:url(#SVGID_74_);}
	.st65{clip-path:url(#SVGID_76_);}
	.st66{clip-path:url(#SVGID_78_);}
	.st67{clip-path:url(#SVGID_80_);}
	.st68{clip-path:url(#SVGID_82_);}
	.st69{clip-path:url(#SVGID_84_);}
	.st70{clip-path:url(#SVGID_86_);}
	.st71{clip-path:url(#SVGID_88_);}
	.st72{clip-path:url(#SVGID_90_);}
	.st73{clip-path:url(#SVGID_92_);}
	.st74{clip-path:url(#SVGID_94_);}
	.st75{clip-path:url(#SVGID_96_);}
	.st76{clip-path:url(#SVGID_98_);}
	.st77{clip-path:url(#SVGID_98_);fill:none;}
	.st78{clip-path:url(#SVGID_100_);}
</style>
<g id="ICON">
	<g>
		<ellipse class="st13" cx="256.4" cy="255.7" rx="228.4" ry="228.4"/>
	</g>
</g>
<g id="Layer_6">
	<g>
		<defs>
			<ellipse id="SVGID_67_" cx="258.6" cy="256.6" rx="228.4" ry="228.4"/>
		</defs>
		<clipPath id="SVGID_2_">
			<use xlink:href="#SVGID_67_"  style="overflow:visible;"/>
		</clipPath>
		<g class="st15">
			<g>
				<g>
					
						<ellipse transform="matrix(0.9453 -0.3262 0.3262 0.9453 -67.7893 67.318)" class="st22" cx="166.9" cy="235.8" rx="22.2" ry="38.6"/>
					
						<ellipse transform="matrix(0.3262 -0.9453 0.9453 0.3262 13.1757 490.1181)" class="st22" cx="350.4" cy="235.8" rx="38.6" ry="22.2"/>
				</g>
				<path class="st5" d="M464,490l-0.1-0.8c0-47.6-21.2-93.8-47.1-102.6l-110.3-37.4c-25.9-8.8-68.3-8.8-94.2-0.1l-111.9,37.6
					c-25.9,8.7-47.1,54.8-47.1,102.5l-0.1,0.8H464z"/>
				<path class="st11" d="M307.8,354.3c0,25.6-20.7,46.3-46.3,46.3h-5.6c-25.6,0-46.3-20.7-46.3-46.3V235
					c0-25.6,20.7-46.3,46.3-46.3h5.6c25.6,0,46.3,20.7,46.3,46.3V354.3z"/>
				<g>
					<path class="st22" d="M353.4,239.9c0,54.1-42.4,97.8-94.8,97.8l0,0c-52.4,0-94.8-43.8-94.8-97.8v-56.4
						c0-54,42.4-97.8,94.8-97.8l0,0c52.4,0,94.8,43.8,94.8,97.8V239.9z"/>
				</g>
				<g>
					<circle class="st2" cx="225.8" cy="229.8" r="9.9"/>
					<circle class="st2" cx="291.5" cy="229.8" r="9.9"/>
				</g>
				<g>
					<polygon class="st33" points="344.4,207.9 356.2,208 356.8,130.3 332.5,117.5 					"/>
					<polygon class="st33" points="160.5,207.7 172.3,207.7 185.5,117.5 160.5,130 					"/>
				</g>
				<g>
					<g>
						<path class="st19" d="M293.4,294.8c-0.5-1.1-0.7-1.6-1.2-2.7c-2.5-5.5-9.2-7.8-15.3-6.2c-11.9,3.2-24.6,3.2-36.5,0
							c-6.1-1.6-12.8,0.7-15.3,6.2c-0.5,1.1-0.7,1.6-1.2,2.7C248.2,303.8,269,303.8,293.4,294.8z"/>
					</g>
				</g>
			</g>
			<g>
				<polygon class="st33" points="256.8,282 212.7,282 256.8,266 				"/>
				<polygon class="st33" points="260.4,282 304.5,282 260.4,266 				"/>
			</g>
			<path class="st33" d="M340.6,122c0,23.7-19.3,43-43,43h-78c-23.7,0-43-19.3-43-43l0,0c0-23.7,19.3-43,43-43h78
				C321.4,79,340.6,98.3,340.6,122L340.6,122z"/>
			<g>
				<g>
					<path class="st33" d="M323.5,206.7c-0.8,5.7-6.1,9.8-11.8,9l-27.7-3.8c-5.7-0.8-9.8-6.1-9-11.8l0,0c0.8-5.7,6.1-9.8,11.8-9
						l27.7,3.8C320.2,195.6,324.2,200.9,323.5,206.7L323.5,206.7z"/>
				</g>
				<g>
					<path class="st33" d="M193.8,206.7c0.8,5.7,6.1,9.8,11.8,9l27.7-3.8c5.7-0.8,9.8-6.1,9-11.8l0,0c-0.8-5.7-6.1-9.8-11.8-9
						l-27.7,3.8C197,195.6,193,200.9,193.8,206.7L193.8,206.7z"/>
				</g>
			</g>
		</g>
	</g>
</g>
</svg>
