<?xml version="1.0" encoding="utf-8"?>
<!-- Generator: Adobe Illustrator 19.2.1, SVG Export Plug-In . SVG Version: 6.00 Build 0)  -->
<svg version="1.1" xmlns="http://www.w3.org/2000/svg" xmlns:xlink="http://www.w3.org/1999/xlink" x="0px" y="0px"
	 viewBox="0 0 512 512" style="enable-background:new 0 0 512 512;" xml:space="preserve">
<style type="text/css">
	.st0{fill:#298063;}
	.st1{fill:#87B7DD;}
	.st2{fill:#1F3049;}
	.st3{fill:#B9BDC2;}
	.st4{fill:#CA6A46;}
	.st5{fill:#5082A9;}
	.st6{fill:#D5872A;}
	.st7{fill:#57646E;}
	.st8{fill:#75A897;}
	.st9{fill:#C93A3A;}
	.st10{fill:#E6CA56;}
	.st11{fill:#DA8B80;}
	.st12{fill:#E4C856;}
	.st13{fill:#C9402E;}
	.st14{fill:#A32929;}
	.st15{clip-path:url(#SVGID_2_);}
	.st16{fill:#D17F73;}
	.st17{fill:#E6A585;}
	.st18{fill:#733D28;}
	.st19{fill:#FFFFFF;}
	.st20{fill:#4E3333;}
	.st21{clip-path:url(#SVGID_4_);}
	.st22{fill:#FFB6AB;}
	.st23{clip-path:url(#SVGID_6_);}
	.st24{clip-path:url(#SVGID_8_);}
	.st25{clip-path:url(#SVGID_10_);}
	.st26{fill:#F09162;}
	.st27{clip-path:url(#SVGID_12_);}
	.st28{clip-path:url(#SVGID_14_);}
	.st29{clip-path:url(#SVGID_16_);}
	.st30{clip-path:url(#SVGID_18_);}
	.st31{clip-path:url(#SVGID_20_);}
	.st32{clip-path:url(#SVGID_22_);}
	.st33{fill:#572020;}
	.st34{clip-path:url(#SVGID_24_);}
	.st35{clip-path:url(#SVGID_26_);}
	.st36{clip-path:url(#SVGID_28_);}
	.st37{fill:#A34B2A;}
	.st38{clip-path:url(#SVGID_30_);}
	.st39{clip-path:url(#SVGID_32_);}
	.st40{clip-path:url(#SVGID_34_);}
	.st41{clip-path:url(#SVGID_36_);}
	.st42{fill:#E09C6F;}
	.st43{clip-path:url(#SVGID_38_);}
	.st44{clip-path:url(#SVGID_40_);}
	.st45{clip-path:url(#SVGID_42_);}
	.st46{clip-path:url(#SVGID_44_);}
	.st47{clip-path:url(#SVGID_46_);}
	.st48{clip-path:url(#SVGID_48_);}
	.st49{clip-path:url(#SVGID_50_);}
	.st50{clip-path:url(#SVGID_52_);}
	.st51{clip-path:url(#SVGID_54_);}
	.st52{clip-path:url(#SVGID_56_);}
	.st53{clip-path:url(#SVGID_58_);}
	.st54{clip-path:url(#SVGID_60_);}
	.st55{clip-path:url(#SVGID_62_);}
	.st56{clip-path:url(#SVGID_64_);fill:#75A897;}
	.st57{clip-path:url(#SVGID_64_);fill:#A34B2A;}
	.st58{clip-path:url(#SVGID_64_);}
	.st59{clip-path:url(#SVGID_64_);fill:#1F3049;}
	.st60{clip-path:url(#SVGID_66_);}
	.st61{clip-path:url(#SVGID_68_);}
	.st62{clip-path:url(#SVGID_70_);}
	.st63{clip-path:url(#SVGID_72_);}
	.st64{clip-path:url(#SVGID_74_);}
	.st65{clip-path:url(#SVGID_76_);}
	.st66{clip-path:url(#SVGID_78_);}
	.st67{clip-path:url(#SVGID_80_);}
	.st68{clip-path:url(#SVGID_82_);}
	.st69{clip-path:url(#SVGID_84_);}
	.st70{clip-path:url(#SVGID_86_);}
	.st71{clip-path:url(#SVGID_88_);}
	.st72{clip-path:url(#SVGID_90_);}
	.st73{clip-path:url(#SVGID_92_);}
	.st74{clip-path:url(#SVGID_94_);}
	.st75{clip-path:url(#SVGID_96_);}
	.st76{clip-path:url(#SVGID_98_);}
	.st77{clip-path:url(#SVGID_98_);fill:none;}
	.st78{clip-path:url(#SVGID_100_);}
</style>
<g id="ICON">
	<g>
		<ellipse class="st10" cx="256.4" cy="254.7" rx="228.4" ry="228.4"/>
	</g>
</g>
<g id="Layer_6">
	<g>
		<defs>
			<ellipse id="SVGID_15_" cx="254.6" cy="255.4" rx="228.4" ry="228.4"/>
		</defs>
		<clipPath id="SVGID_2_">
			<use xlink:href="#SVGID_15_"  style="overflow:visible;"/>
		</clipPath>
		<g class="st15">
			<path class="st18" d="M401.6,237c0,30.4-24.6,55-55,55h-184c-30.4,0-55-24.6-55-55v-6c0-30.4,24.6-55,55-55h184
				c30.4,0,55,24.6,55,55V237z"/>
			<path class="st11" d="M440.2,507l-0.1-0.8c0-51.2-19.2-100.8-42.6-110.3l-99.7-40.2c-23.4-9.4-61.7-9.5-85.1-0.1L111.7,396
				c-23.4,9.4-42.6,58.9-42.6,110.1L69,507H440.2z"/>
			<path class="st11" d="M296.8,358.2c0,22-17.8,39.8-39.8,39.8h-4.8c-22,0-39.8-17.8-39.8-39.8V255.7c0-22,17.8-39.8,39.8-39.8h4.8
				c22,0,39.8,17.8,39.8,39.8V358.2z"/>
			<g>
				<path class="st22" d="M349.4,233.2c0,54.1-42.4,97.9-94.8,97.9l0,0c-52.4,0-94.8-43.8-94.8-97.9v-56.4c0-54,42.4-97.8,94.8-97.8
					l0,0c52.4,0,94.8,43.8,94.8,97.8V233.2z"/>
			</g>
			<g>
				<path class="st22" d="M187.8,227.1c6.6,15.5,3,30.6-8,33.7c-11,3.1-25.2-7-31.7-22.5c-6.6-15.5-3-30.6,8-33.7
					C167.1,201.5,181.3,211.6,187.8,227.1z"/>
				<path class="st22" d="M321.4,227.1c-6.6,15.5-3,30.6,8,33.7c11,3.1,25.2-7,31.7-22.5c6.6-15.5,3-30.6-8-33.7
					C342.2,201.5,327.9,211.6,321.4,227.1z"/>
			</g>
			<g>
				<circle class="st2" cx="221.8" cy="227.6" r="9.9"/>
				<circle class="st2" cx="287.5" cy="227.6" r="9.9"/>
			</g>
			<g>
				<path class="st18" d="M254.6,74c-56.9,0-103,47.4-103,105.8c0,19.4,5.1,37.6,14,53.2l10.2-82.3l157.6,0l10.3,82.3
					c8.9-15.6,14-33.8,14-53.2C357.6,121.4,311.5,74,254.6,74z"/>
			</g>
			<g>
				<g>
					<path class="st18" d="M200.8,210.3c8-8.8,19.2-12.7,30.8-12.8c5.8-0.1,5.8-9.1,0-9c-13.9,0.2-27.7,5-37.2,15.5
						C190.5,208.3,196.9,214.6,200.8,210.3L200.8,210.3z"/>
				</g>
				<g>
					<path class="st18" d="M314.8,204c-9.5-10.5-23.3-15.3-37.2-15.5c-5.8-0.1-5.8,8.9,0,9c11.7,0.2,22.9,4.1,30.8,12.8
						C312.3,214.6,318.7,208.3,314.8,204L314.8,204z"/>
				</g>
			</g>
			<path class="st7" d="M440.2,506.2c0-51.2-19.2-100.8-42.6-110.3l-75.2-30.3c0,0-14.4,51.9-67.7,51.9c-53.4,0-67.4-51.7-67.4-51.7
				L111.7,396c-23.4,9.4-42.6,58.9-42.6,110.1L69,507h371.2L440.2,506.2z"/>
			<path class="st9" d="M232.8,281.5c-0.4,0-0.8-0.1-1.2-0.2c-1.3,3-1.9,6.2-1.9,9.7c0,13.8,11.2,25,25,25c13.8,0,25-11.2,25-25
				c0-3.4-0.7-6.6-1.9-9.5H232.8z"/>
			<ellipse class="st9" cx="254.6" cy="286.5" rx="28.5" ry="14.5"/>
			<path class="st2" d="M219.4,272.3c3.9,18.8,18.2,32.7,35.3,32.7c17.1,0,31.4-13.9,35.3-32.7c-7.6,7.1-20.6,11.7-35.3,11.7
				C239.9,284,227,279.4,219.4,272.3z"/>
			<g>
				<path class="st19" d="M186.5,362c-10.1,21.7-6.1,46.4,11.1,59.1c17.2,12.7,41.9,9.4,59.8-6.6c-12.9,1.4-29.4-3.6-44.1-14.5
					C198.4,389.1,188.9,374.8,186.5,362z"/>
				<path class="st19" d="M322.8,362c10.1,21.7,6.1,46.4-11.1,59.1c-17.2,12.7-41.9,9.4-59.8-6.6c12.9,1.4,29.4-3.6,44.1-14.5
					C310.8,389.1,320.4,374.8,322.8,362z"/>
			</g>
		</g>
	</g>
</g>
</svg>
